<?xml version="1.0" encoding="utf-8"?>
<!-- Generator: Adobe Illustrator 26.2.1, SVG Export Plug-In . SVG Version: 6.00 Build 0)  -->
<svg version="1.1" id="Layer_1" xmlns="http://www.w3.org/2000/svg" xmlns:xlink="http://www.w3.org/1999/xlink" x="0px" y="0px"
	 viewBox="0 0 108.6 86.2" style="enable-background:new 0 0 108.6 86.2;" xml:space="preserve">
<style type="text/css">
	.st0{fill:#63C39E;}
</style>
<path class="st0" d="M108.4,46.2c-3.7,13.8-12.6,26.5-26.8,32.5c-2.5,1.3-5.1,2.6-7.7,3.7c-3.1,1.2-6.4,2.1-9.7,2.6
	c-16.2,2.6-32.7-3.9-45.2-14.9c-2.6-2.4-5-5-7.2-7.8C5.5,53.9,1.2,43.5,0,31.9c-0.3-7,1.8-13.1,5.3-18.2c1.8-2.5,3.9-4.8,6.4-6.9
	c34.6-23.3,88.8,19.3,94.9,29.7C109.2,40.4,108.6,42.9,108.4,46.2z"/>
</svg>
